HIERARCHY
ROOT Hips
{
	OFFSET	0.00	0.00	0.00
	CHANNELS 6 Xposition Yposition Zposition Zrotation Xrotation Yrotation
	JOINT LeftUpLeg
	{
		OFFSET	 0.126116	-0.065224	 0.014019
		CHANNELS 3 Zrotation Xrotation Yrotation
		JOINT LeftLeg
		{
			OFFSET	 0.000000	 0.569914	 0.000000
			CHANNELS 3 Zrotation Xrotation Yrotation
			JOINT LeftFoot
			{
				OFFSET	 0.000000	 0.544423	 0.000000
				CHANNELS 3 Zrotation Xrotation Yrotation
				JOINT LeftToeBase
				{
					OFFSET	 0.000000	 0.207117	 0.000000
					CHANNELS 3 Zrotation Xrotation Yrotation
					End Site
					{
						OFFSET	 0.000000	 0.207117	 0.000000
					}
				}
			}
		}
	}
	JOINT RightUpLeg
	{
		OFFSET	-0.124023	-0.065224	 0.008373
		CHANNELS 3 Zrotation Xrotation Yrotation
		JOINT RightLeg
		{
			OFFSET	 0.000000	 0.570047	 0.000000
			CHANNELS 3 Zrotation Xrotation Yrotation
			JOINT RightFoot
			{
				OFFSET	 0.000000	 0.544354	 0.000000
				CHANNELS 3 Zrotation Xrotation Yrotation
				JOINT RightToeBase
				{
					OFFSET	 0.000000	 0.207540	 0.000000
					CHANNELS 3 Zrotation Xrotation Yrotation
					End Site
					{
						OFFSET	 0.000000	 0.207540	 0.000000
					}
				}
			}
		}
	}
	JOINT Spine
	{
		OFFSET	 0.000184	 0.117403	 0.007763
		CHANNELS 3 Zrotation Xrotation Yrotation
		JOINT Spine1
		{
			OFFSET	 0.000000	 0.137269	 0.000000
			CHANNELS 3 Zrotation Xrotation Yrotation
			JOINT Spine2
			{
				OFFSET	 0.000000	 0.156879	 0.000000
				CHANNELS 3 Zrotation Xrotation Yrotation
				JOINT LeftShoulder
				{
					OFFSET	 0.080501	 0.160143	 0.002496
					CHANNELS 3 Zrotation Xrotation Yrotation
					JOINT LeftArm
					{
						OFFSET	 0.000000	 0.164363	 0.000000
						CHANNELS 3 Zrotation Xrotation Yrotation
						JOINT LeftForeArm
						{
							OFFSET	 0.000000	 0.364576	 0.000000
							CHANNELS 3 Zrotation Xrotation Yrotation
							JOINT LeftHand
							{
								OFFSET	 0.000000	 0.360812	 0.000000
								CHANNELS 3 Zrotation Xrotation Yrotation
								JOINT LeftHandIndex1
								{
									OFFSET	 0.000000	 0.086006	 0.000000
									CHANNELS 3 Zrotation Xrotation Yrotation
									JOINT LeftHandIndex2
									{
										OFFSET	 0.000000	 0.047237	 0.000000
										CHANNELS 3 Zrotation Xrotation Yrotation
										JOINT LeftHandIndex3
										{
											OFFSET	-0.004284	 0.038165	 0.000551
											CHANNELS 3 Zrotation Xrotation Yrotation
											End Site
											{
												OFFSET	-0.004284	 0.038165	 0.000551
											}
										}
									}
								}
							}
						}
					}
				}
				JOINT Neck
				{
					OFFSET	 0.000000	 0.176489	 0.000000
					CHANNELS 3 Zrotation Xrotation Yrotation
					JOINT Head
					{
						OFFSET	 0.000000	 0.077941	 0.001747
						CHANNELS 3 Zrotation Xrotation Yrotation
						End Site
						{
							OFFSET	 0.000000	 0.077941	 0.001747
						}
					}
				}
				JOINT RightShoulder
				{
					OFFSET	-0.080363	 0.159706	-0.000306
					CHANNELS 3 Zrotation Xrotation Yrotation
					JOINT RightArm
					{
						OFFSET	 0.000000	 0.164196	 0.000000
						CHANNELS 3 Zrotation Xrotation Yrotation
						JOINT RightForeArm
						{
							OFFSET	 0.000000	 0.365611	 0.000000
							CHANNELS 3 Zrotation Xrotation Yrotation
							JOINT RightHand
							{
								OFFSET	 0.000000	 0.360648	 0.000000
								CHANNELS 3 Zrotation Xrotation Yrotation
								JOINT RightHandIndex1
								{
									OFFSET	 0.000000	 0.069977	 0.000000
									CHANNELS 3 Zrotation Xrotation Yrotation
									JOINT RightHandIndex2
									{
										OFFSET	 0.000000	 0.052305	 0.000000
										CHANNELS 3 Zrotation Xrotation Yrotation
										JOINT RightHandIndex3
										{
											OFFSET	 0.009002	 0.042196	 0.000782
											CHANNELS 3 Zrotation Xrotation Yrotation
											End Site
											{
												OFFSET	 0.009002	 0.042196	 0.000782
											}
										}
									}
								}
							}
						}
					}
				}
			}
		}
	}
}
MOTION
Frames:    11
Frame Time: 0.03333334
-0.009465	 1.232972	 0.010836	 2.957274	 0.439057	 172.078000	-172.628300	 18.666690	 1.771558	 9.596622	-32.140460	 4.803529	-22.282360	 74.772110	 13.672070	 1.161913	 26.687720	-2.659613	-171.366200	 10.363810	-9.913193	-2.565628	-30.591490	 7.740230	 5.390422	 79.682410	-5.735923	-1.288885	 28.371060	 2.710472	 2.067266	 6.090681	-6.767391	 6.260901	 5.847048	-3.765223	-4.954885	-5.130679	 13.145170	-113.148200	 6.490538	 92.939990	 10.135570	 49.857030	 12.544320	 25.870090	-1.292898	 0.197319	-1.991702	-9.150536	-16.258130	 0.597895	 8.538381	-0.355555	-5.949156	 13.603430	 1.520724	 4.987823	-3.472656	-0.333740	 3.184488	-6.826665	 0.878738	-1.253073	-5.873555	 6.746844	 123.427500	 10.378730	-96.380130	-10.029990	 48.332990	-0.313409	-5.090080	-0.199599	 0.065636	-8.835156	-6.591216	-52.362270	-2.321021	 4.886798	 0.895730	 12.538330	 22.902180	-5.160330	-8.500686	 13.104710	-0.525657
-0.009535	 1.232910	 0.010969	 2.936955	 0.394788	 171.889600	-172.577900	 18.659020	 1.512419	 9.623763	-32.126670	 4.778054	-22.566880	 74.732060	 13.965960	 1.161741	 26.685400	-2.659545	-171.347300	 10.483710	-10.040490	-2.572976	-30.687450	 7.656675	 4.989473	 79.710800	-5.286441	-1.288721	 28.368900	 2.710403	 2.141239	 5.985576	-6.770014	 6.139014	 6.099085	-3.737769	-4.835349	-5.546514	 13.136520	-113.073500	 6.501037	 92.947840	 9.849128	 50.010380	 12.891780	 25.810340	-1.289128	 0.170710	-1.547904	-9.577000	-16.058990	 0.655910	 8.358379	-0.355142	-5.948419	 13.643870	 1.525060	 4.990750	-3.408384	-0.332189	 3.182368	-6.828243	 0.890948	-1.250509	-5.957611	 6.828693	 123.377400	 10.386870	-96.374890	-9.746379	 48.455080	-0.455594	-5.109128	-0.199523	 0.090782	-9.453582	-6.609868	-52.114090	-2.341997	 4.952500	 0.894900	 12.550930	 23.075500	-5.202223	-8.501926	 13.246580	-0.534613
-0.009617	 1.232842	 0.011135	 2.910252	 0.340304	 171.657600	-172.517400	 18.648010	 1.253513	 9.619648	-32.115750	 4.678716	-22.903480	 74.681350	 14.313830	 1.161532	 26.682570	-2.659462	-171.324800	 10.630300	-10.196240	-2.581754	-30.802430	 7.554632	 4.500844	 79.743050	-4.740438	-1.288520	 28.366270	 2.710318	 2.226706	 5.876232	-6.766434	 6.004170	 6.348572	-3.699467	-4.701045	-5.969365	 13.114090	-112.982100	 6.513898	 92.957440	 9.570311	 50.193740	 13.258350	 25.729270	-1.284207	 0.138121	-1.056848	-10.020500	-15.801360	 0.726803	 8.138311	-0.354387	-5.947520	 13.693300	 1.530361	 4.994325	-3.329821	-0.330299	 3.179777	-6.830173	 0.905873	-1.248090	-6.048622	 6.925269	 123.316200	 10.396850	-96.368490	-9.465076	 48.578090	-0.583131	-5.130239	-0.199483	 0.121592	-10.103490	-6.630263	-51.790070	-2.367639	 5.032810	 0.893918	 12.566540	 23.287380	-5.253569	-8.503415	 13.420010	-0.545565
-0.009708	 1.232769	 0.011334	 2.877978	 0.277335	 171.387800	-172.447700	 18.633440	 0.953181	 9.613444	-32.099200	 4.562767	-23.284070	 74.619960	 14.707810	 1.161289	 26.679280	-2.659366	-171.298300	 10.799530	-10.376920	-2.591645	-30.932350	 7.436444	 3.929712	 79.777090	-4.104893	-1.288288	 28.363210	 2.710219	 2.322316	 5.765650	-6.760406	 5.863836	 6.592257	-3.654830	-4.556881	-6.391295	 13.078230	-112.876300	 6.528816	 92.968540	 9.304317	 50.404270	 13.637320	 25.629220	-1.278222	 0.100167	-0.530363	-10.473610	-15.497180	 0.808971	 7.883111	-0.353168	-5.946484	 13.750610	 1.536506	 4.998465	-3.238738	-0.328114	 3.176773	-6.832410	 0.923176	-1.245750	-6.144681	 7.034279	 123.245200	 10.408390	-96.361040	-9.193406	 48.697700	-0.692504	-5.156645	-0.199502	 0.157099	-10.768290	-6.652380	-51.403480	-2.397370	 5.125921	 0.892825	 12.584940	 23.533050	-5.313292	-8.505097	 13.621100	-0.558268
-0.009809	 1.232694	 0.011572	 2.839588	 0.204358	 171.076400	-172.367800	 18.615850	 0.606705	 9.604906	-32.076500	 4.428255	-23.714240	 74.546020	 15.154120	 1.161009	 26.675490	-2.659255	-171.266600	 10.994110	-10.585430	-2.602678	-31.077780	 7.300262	 3.260467	 79.812230	-3.363700	-1.288020	 28.359690	 2.710106	 2.430036	 5.651525	-6.755145	 5.720783	 6.836496	-3.606591	-4.402528	-6.821702	 13.028070	-112.754100	 6.546037	 92.981280	 9.047330	 50.647770	 14.034690	 25.506700	-1.270971	 0.056240	 0.040054	-10.945630	-15.146130	 0.903727	 7.588644	-0.351304	-5.945297	 13.816720	 1.543596	 5.003237	-3.133666	-0.325602	 3.173310	-6.834993	 0.943135	-1.243338	-6.247452	 7.157465	 123.163300	 10.421710	-96.352430	-8.930936	 48.814540	-0.782569	-5.186192	-0.199572	 0.198248	-11.460030	-6.676948	-50.953830	-2.431670	 5.233332	 0.891624	 12.606550	 23.816510	-5.382451	-8.506985	 13.853110	-0.572930
-0.009923	 1.232616	 0.011855	 2.794335	 0.119443	 170.716900	-172.276000	 18.594670	 0.208122	 9.593412	-32.045940	 4.272624	-24.193640	 74.457760	 15.652490	 1.160687	 26.671130	-2.659127	-171.228400	 11.217630	-10.825440	-2.614853	-31.239150	 7.143868	 2.485227	 79.846750	-2.509188	-1.287712	 28.355630	 2.709976	 2.552056	 5.531316	-6.753427	 5.578241	 7.087017	-3.556994	-4.237802	-7.267437	 12.962010	-112.613700	 6.565898	 92.995930	 8.797572	 50.930610	 14.455560	 25.357800	-1.262270	 0.005558	 0.662345	-11.445150	-14.747820	 1.012672	 7.249880	-0.348553	-5.943942	 13.892750	 1.551751	 5.008718	-3.012822	-0.322723	 3.169327	-6.837964	 0.966090	-1.240690	-6.358457	 7.296919	 123.069100	 10.436990	-96.342500	-8.676745	 48.927940	-0.851580	-5.222448	-0.199670	 0.245490	-12.185210	-6.704374	-50.439910	-2.471123	 5.356867	 0.890323	 12.631940	 24.142560	-5.462343	-8.509081	 14.119980	-0.589803
-0.010062	 1.232533	 0.012226	 2.736567	 0.013165	 170.265800	-172.160900	 18.566100	-0.291187	 9.576862	-32.001870	 4.076566	-24.776300	 74.342280	 16.260060	 1.160283	 26.665670	-2.658967	-171.177600	 11.495400	-11.126050	-2.629366	-31.432590	 6.948336	 1.501195	 79.881740	-1.430436	-1.287326	 28.350550	 2.709812	 2.703541	 5.393327	-6.760409	 5.428977	 7.373528	-3.505970	-4.047236	-7.776373	 12.869750	-112.437800	 6.590813	 93.014180	 8.536410	 51.289960	 14.942530	 25.161190	-1.250828	-0.058073	 1.404390	-12.026970	-14.261640	 1.149063	 6.825508	-0.344195	-5.942259	 13.987960	 1.561964	 5.015574	-2.861487	-0.319135	 3.164341	-6.841687	 0.994835	-1.237339	-6.489938	 7.468897	 122.951100	 10.456100	-96.330010	-8.417587	 49.045280	-0.895541	-5.266365	-0.199748	 0.304544	-13.019460	-6.738204	-49.805950	-2.520539	 5.511575	 0.888813	 12.664550	 24.550960	-5.562938	-8.511598	 14.454250	-0.610952
-0.010209	 1.232459	 0.012636	 2.673789	-0.101414	 169.782500	-172.037600	 18.534150	-0.825026	 9.556916	-31.948700	 3.865786	-25.377370	 74.213810	 16.889030	 1.159852	 26.659830	-2.658795	-171.119400	 11.790430	-11.447500	-2.643966	-31.628780	 6.739751	 0.437895	 79.909070	-0.271385	-1.286913	 28.345130	 2.709638	 2.864581	 5.257248	-6.780169	 5.303243	 7.656719	-3.465843	-3.860757	-8.277894	 12.761770	-112.249700	 6.617505	 93.033610	 8.304712	 51.681060	 15.426060	 24.939950	-1.238140	-0.126354	 2.162760	-12.612140	-13.760000	 1.294798	 6.371783	-0.338414	-5.940480	 14.089720	 1.572881	 5.022890	-2.699737	-0.315321	 3.159015	-6.845669	 1.025556	-1.233550	-6.623788	 7.650305	 122.825000	 10.476520	-96.316650	-8.198154	 49.146590	-0.900258	-5.312220	-0.199697	 0.367785	-13.843750	-6.773264	-49.145480	-2.573366	 5.676931	 0.887347	 12.700400	 24.987530	-5.671139	-8.514150	 14.811580	-0.633579
-0.010375	 1.232394	 0.013118	 2.601711	-0.231510	 169.234000	-171.897700	 18.495600	-1.429002	 9.531728	-31.881470	 3.625953	-26.030340	 74.062820	 17.575010	 1.159365	 26.653240	-2.658602	-171.048900	 12.121130	-11.811330	-2.659402	-31.838040	 6.504320	-0.774259	 79.927630	 1.042511	-1.286447	 28.338990	 2.709441	 3.046674	 5.113467	-6.817734	 5.197241	 7.962331	-3.437882	-3.667390	-8.808961	 12.629990	-112.037100	 6.647766	 93.055480	 8.090805	 52.131140	 15.935310	 24.678930	-1.223185	-0.203729	 2.985742	-13.241680	-13.215220	 1.459615	 5.858383	-0.330480	-5.938490	 14.204820	 1.585232	 5.031151	-2.516771	-0.311032	 3.152993	-6.850176	 1.060306	-1.228877	-6.769074	 7.853034	 122.682300	 10.499600	-96.301490	-8.008866	 49.236420	-0.863082	-5.365127	-0.199759	 0.439382	-14.710940	-6.811767	-48.419410	-2.633136	 5.863980	 0.885873	 12.742220	 25.481440	-5.794405	-8.516867	 15.215860	-0.659204
-0.010559	 1.232343	 0.013669	 2.520975	-0.376100	 168.626500	-171.742400	 18.450390	-2.096670	 9.500888	-31.799060	 3.359289	-26.722340	 73.889410	 18.305610	 1.158826	 26.645940	-2.658388	-170.965400	 12.482480	-12.213480	-2.675105	-32.053560	 6.244785	-2.123036	 79.933380	 2.496215	-1.285932	 28.332210	 2.709223	 3.248624	 4.964472	-6.877400	 5.119218	 8.289413	-3.427456	-3.471898	-9.363417	 12.474140	-111.802000	 6.681322	 93.079540	 7.905190	 52.636780	 16.457430	 24.378150	-1.206146	-0.289373	 3.860337	-13.907360	-12.639110	 1.641735	 5.290844	-0.319991	-5.936321	 14.332020	 1.598883	 5.040263	-2.314573	-0.306324	 3.146341	-6.855161	 1.098706	-1.223140	-6.923837	 8.074607	 122.524600	 10.525000	-96.284610	-7.860473	 49.310240	-0.776922	-5.425648	-0.199841	 0.518341	-15.605550	-6.852531	-47.642710	-2.699207	 6.070692	 0.884472	 12.790040	 26.027350	-5.931733	-8.519657	 15.662720	-0.687563
-0.010736	 1.232315	 0.014200	 2.444005	-0.512903	 168.053400	-171.595900	 18.405220	-2.725218	 9.469286	-31.714420	 3.106932	-27.346310	 73.720880	 18.967910	 1.158319	 26.639080	-2.658188	-170.881500	 12.818490	-12.592230	-2.688654	-32.241930	 6.001089	-3.396469	 79.925060	 3.861692	-1.285447	 28.325820	 2.709018	 3.439637	 4.831810	-6.949484	 5.078312	 8.591893	-3.435459	-3.302661	-9.861768	 12.318730	-111.580800	 6.712970	 93.102030	 7.773222	 53.118320	 16.914190	 24.085620	-1.189489	-0.370173	 4.654329	-14.510900	-12.119690	 1.813157	 4.756526	-0.308469	-5.934305	 14.451750	 1.611734	 5.048823	-2.124260	-0.301922	 3.140084	-6.859858	 1.134847	-1.217129	-7.065151	 8.281083	 122.376200	 10.548890	-96.268700	-7.773551	 49.359140	-0.656902	-5.481284	-0.199891	 0.592730	-16.399400	-6.889269	-46.933560	-2.761413	 6.265254	 0.883372	 12.836590	 26.541210	-6.062083	-8.522079	 16.083370	-0.714296
